<svg xmlns="http://www.w3.org/2000/svg" fill="none" viewBox="0 0 136 224">
  <path stroke-linecap="round" stroke-linejoin="round" stroke-width="2" d="M0 210a2 2 0 012-2h132a2 2 0 012 2v12a2 2 0 01-2 2H2a2 2 0 01-2-2v-12zM4 6a2 2 0 012-2h6a2 2 0 012 2v180a2 2 0 01-2 2H6a2 2 0 01-2-2V6zM22 2a2 2 0 012-2h6a2 2 0 012 2v188a2 2 0 01-2 2h-6a2 2 0 01-2-2V2zM106 2a2 2 0 012-2h6a2 2 0 012 2v188a2 2 0 01-2 2h-6a2 2 0 01-2-2V2zM124 6a2 2 0 012-2h6a2 2 0 012 2v180a2 2 0 01-2 2h-6a2 2 0 01-2-2V6zM64 66a2 2 0 012-2h6a2 2 0 012 2v60a2 2 0 01-2 2h-6a2 2 0 01-2-2V66zM84 98a2 2 0 012-2h6a2 2 0 012 2v60a2 2 0 01-2 2h-6a2 2 0 01-2-2V98zM44 34a2 2 0 012-2h6a2 2 0 012 2v60a2 2 0 01-2 2h-6a2 2 0 01-2-2V34z"/>
</svg>
